<svg width="342" height="397" viewBox="0 0 342 397" fill="none" xmlns="http://www.w3.org/2000/svg">
<path d="M167.205 1.6077C170.918 -0.535898 175.492 -0.535899 179.205 1.60769L338.91 93.8135C342.243 95.738 342.243 100.549 338.91 102.474L265.808 144.679C262.095 146.823 257.52 146.823 253.808 144.679L179.205 101.608C175.492 99.4641 170.918 99.4641 167.205 101.608L92.6025 144.679C88.8897 146.823 86.6025 150.785 86.6025 155.072V241.215C86.6025 245.503 88.8897 249.464 92.6025 251.608L167.205 294.68C170.918 296.823 175.492 296.823 179.205 294.68L253.808 251.608C257.52 249.464 262.095 249.464 265.808 251.608L338.91 293.813C342.243 295.738 342.243 300.549 338.91 302.474L179.205 394.68C175.492 396.823 170.918 396.823 167.205 394.68L6 301.608C2.28719 299.464 0 295.503 0 291.215V105.072C0 100.785 2.28719 96.8231 6 94.6795L167.205 1.6077Z" fill="url(#paint0_linear_4_123)"/>
<defs>
<linearGradient id="paint0_linear_4_123" x1="265" y1="51" x2="85" y2="348" gradientUnits="userSpaceOnUse">
<stop stop-color="#22D3EE"/>
<stop offset="0.350876" stop-color="#06B6D4"/>
<stop offset="0.70077" stop-color="#2563EB"/>
<stop offset="1" stop-color="#1E40AF"/>
</linearGradient>
</defs>
</svg>
